<?xml version="1.0" encoding="utf-8"?><svg xmlns="http://www.w3.org/2000/svg" xmlns:xlink="http://www.w3.org/1999/xlink" width="1404" height="1131" preserveAspectRatio="xMidYMid" viewBox="0 0 1404 1131" style="z-index:1;margin-right:-2px;display:block;background-color:rgb(255, 255, 255);animation-play-state:paused" ><g transform="translate(702,565.5) scale(1,1) translate(-702,-565.5)" style="transform:matrix(1, 0, 0, 1, 0, 0);animation-play-state:paused" ><linearGradient id="lg-0.06029761157268276" x1="0" x2="1" y1="0" y2="0" style="animation-play-state:paused" ><stop stop-color="#ff00ff" offset="0" style="animation-play-state:paused" ></stop>

  
<stop stop-color="#00ffff" offset="1" style="animation-play-state:paused" ></stop></linearGradient>
<path d="M 0 0 L 0 949.419 Q 140.4 844.874 280.8 822.259 T 561.6 735.004 T 842.4 623.044 T 1123.2 574.403 T 1404 504.848 L 1404 0 Z" fill="url(#lg-0.06029761157268276)" opacity="0.4" style="opacity:0.4;animation-play-state:paused" ></path>
<path d="M 0 0 L 0 802.739 Q 140.4 770.981 280.8 744.798 T 561.6 642.665 T 842.4 679.319 T 1123.2 478.035 T 1404 359.247 L 1404 0 Z" fill="url(#lg-0.06029761157268276)" opacity="0.4" style="opacity:0.4;animation-play-state:paused" ></path>
<path d="M 0 0 L 0 891.271 Q 140.4 779.929 280.8 760.527 T 561.6 715.388 T 842.4 557.565 T 1123.2 544.981 T 1404 374.165 L 1404 0 Z" fill="url(#lg-0.06029761157268276)" opacity="0.4" style="opacity:0.4;animation-play-state:paused" ></path>
<path d="M 0 0 L 0 842.635 Q 140.4 753.343 280.8 724.705 T 561.6 627.347 T 842.4 697.397 T 1123.2 428.047 T 1404 403.972 L 1404 0 Z" fill="url(#lg-0.06029761157268276)" opacity="0.4" style="opacity:0.4;animation-play-state:paused" ></path>
<path d="M 0 0 L 0 894.193 Q 140.4 833.742 280.8 797.765 T 561.6 762.105 T 842.4 632.552 T 1123.2 606.228 T 1404 414.009 L 1404 0 Z" fill="url(#lg-0.06029761157268276)" opacity="0.4" style="opacity:0.4;animation-play-state:paused" ></path></g></svg>